<svg width="257" height="383" viewBox="0 0 257 383" fill="none" xmlns="http://www.w3.org/2000/svg">
<circle cx="2.5" cy="2.5" r="2.5" fill="#867ce1ff"/>
<circle cx="2.5" cy="44.5" r="2.5" fill="#867ce1ff"/>
<circle cx="2.5" cy="86.5" r="2.5" fill="#867ce1ff"/>
<circle cx="2.5" cy="128.5" r="2.5" fill="#867ce1ff"/>
<circle cx="2.5" cy="170.5" r="2.5" fill="#867ce1ff"/>
<circle cx="2.5" cy="212.5" r="2.5" fill="#867ce1ff"/>
<circle cx="2.5" cy="254.5" r="2.5" fill="#867ce1ff"/>
<circle cx="2.5" cy="296.5" r="2.5" fill="#867ce1ff"/>
<circle cx="2.5" cy="338.5" r="2.5" fill="#867ce1ff"/>
<circle cx="2.5" cy="380.5" r="2.5" fill="#867ce1ff"/>
<circle cx="44.5" cy="2.5" r="2.5" fill="#867ce1ff"/>
<circle cx="44.5" cy="44.5" r="2.5" fill="#867ce1ff"/>
<circle cx="44.5" cy="86.5" r="2.5" fill="#867ce1ff"/>
<circle cx="44.5" cy="128.5" r="2.5" fill="#867ce1ff"/>
<circle cx="44.5" cy="170.5" r="2.5" fill="#867ce1ff"/>
<circle cx="44.5" cy="212.5" r="2.5" fill="#867ce1ff"/>
<circle cx="44.5" cy="254.5" r="2.5" fill="#867ce1ff"/>
<circle cx="44.5" cy="296.5" r="2.5" fill="#867ce1ff"/>
<circle cx="44.5" cy="338.5" r="2.5" fill="#867ce1ff"/>
<circle cx="44.5" cy="380.5" r="2.5" fill="#867ce1ff"/>
<circle cx="86.5" cy="2.5" r="2.5" fill="#867ce1ff"/>
<circle cx="86.5" cy="44.5" r="2.5" fill="#867ce1ff"/>
<circle cx="86.5" cy="86.5" r="2.5" fill="#867ce1ff"/>
<circle cx="86.5" cy="128.5" r="2.5" fill="#867ce1ff"/>
<circle cx="86.5" cy="170.5" r="2.5" fill="#867ce1ff"/>
<circle cx="86.5" cy="212.5" r="2.5" fill="#867ce1ff"/>
<circle cx="86.5" cy="254.5" r="2.5" fill="#867ce1ff"/>
<circle cx="86.5" cy="296.5" r="2.5" fill="#867ce1ff"/>
<circle cx="86.5" cy="338.5" r="2.5" fill="#867ce1ff"/>
<circle cx="86.5" cy="380.5" r="2.5" fill="#867ce1ff"/>
<circle cx="128.5" cy="2.5" r="2.5" fill="#867ce1ff"/>
<circle cx="128.5" cy="44.5" r="2.5" fill="#867ce1ff"/>
<circle cx="128.5" cy="86.5" r="2.5" fill="#867ce1ff"/>
<circle cx="128.5" cy="128.5" r="2.5" fill="#867ce1ff"/>
<circle cx="128.5" cy="170.5" r="2.5" fill="#867ce1ff"/>
<circle cx="128.5" cy="212.5" r="2.5" fill="#867ce1ff"/>
<circle cx="128.5" cy="254.5" r="2.5" fill="#867ce1ff"/>
<circle cx="128.5" cy="296.5" r="2.5" fill="#867ce1ff"/>
<circle cx="128.5" cy="338.5" r="2.5" fill="#867ce1ff"/>
<circle cx="128.5" cy="380.5" r="2.5" fill="#867ce1ff"/>
<circle cx="170.5" cy="2.5" r="2.5" fill="#867ce1ff"/>
<circle cx="170.5" cy="44.5" r="2.5" fill="#867ce1ff"/>
<circle cx="170.5" cy="86.5" r="2.5" fill="#867ce1ff"/>
<circle cx="170.5" cy="128.5" r="2.5" fill="#867ce1ff"/>
<circle cx="170.5" cy="170.5" r="2.5" fill="#867ce1ff"/>
<circle cx="170.5" cy="212.5" r="2.5" fill="#867ce1ff"/>
<circle cx="170.5" cy="254.5" r="2.5" fill="#867ce1ff"/>
<circle cx="170.5" cy="296.5" r="2.5" fill="#867ce1ff"/>
<circle cx="170.5" cy="338.5" r="2.5" fill="#867ce1ff"/>
<circle cx="170.5" cy="380.5" r="2.5" fill="#867ce1ff"/>
<circle cx="212.5" cy="2.5" r="2.5" fill="#867ce1ff"/>
<circle cx="212.5" cy="44.5" r="2.5" fill="#867ce1ff"/>
<circle cx="212.5" cy="86.5" r="2.5" fill="#867ce1ff"/>
<circle cx="212.5" cy="128.5" r="2.5" fill="#867ce1ff"/>
<circle cx="212.5" cy="170.5" r="2.5" fill="#867ce1ff"/>
<circle cx="212.5" cy="212.5" r="2.5" fill="#867ce1ff"/>
<circle cx="212.5" cy="254.5" r="2.5" fill="#867ce1ff"/>
<circle cx="212.5" cy="296.5" r="2.5" fill="#867ce1ff"/>
<circle cx="212.5" cy="338.5" r="2.5" fill="#867ce1ff"/>
<circle cx="212.5" cy="380.5" r="2.5" fill="#867ce1ff"/>
<circle cx="254.5" cy="2.5" r="2.5" fill="#867ce1ff"/>
<circle cx="254.5" cy="44.5" r="2.5" fill="#867ce1ff"/>
<circle cx="254.5" cy="86.5" r="2.5" fill="#867ce1ff"/>
<circle cx="254.5" cy="128.5" r="2.5" fill="#867ce1ff"/>
<circle cx="254.5" cy="170.5" r="2.5" fill="#867ce1ff"/>
<circle cx="254.5" cy="212.5" r="2.5" fill="#867ce1ff"/>
<circle cx="254.5" cy="254.5" r="2.5" fill="#867ce1ff"/>
<circle cx="254.5" cy="296.5" r="2.5" fill="#867ce1ff"/>
<circle cx="254.5" cy="338.5" r="2.5" fill="#867ce1ff"/>
<circle cx="254.5" cy="380.5" r="2.5" fill="#867ce1ff"/>
</svg>
