<svg width="24" height="24" viewBox="0 0 24 24" fill="none" xmlns="http://www.w3.org/2000/svg">
<path d="M18.0001 11.1428L6.00005 11.1428C5.05328 11.1428 4.28577 11.9103 4.28577 12.8571L4.28577 19.7143C4.28577 20.661 5.05328 21.4285 6.00005 21.4285L18.0001 21.4285C18.9468 21.4285 19.7143 20.661 19.7143 19.7143V12.8571C19.7143 11.9103 18.9468 11.1428 18.0001 11.1428Z" stroke="#323842" stroke-width="2.05714" stroke-miterlimit="10" stroke-linecap="square"/>
<path d="M12.0001 18C12.9468 18 13.7143 17.2325 13.7143 16.2857C13.7143 15.3389 12.9468 14.5714 12.0001 14.5714C11.0533 14.5714 10.2858 15.3389 10.2858 16.2857C10.2858 17.2325 11.0533 18 12.0001 18Z" stroke="#323842" stroke-width="2.05714" stroke-miterlimit="10" stroke-linecap="square"/>
<path d="M16.2857 7.71423V6.85709C16.2969 5.73187 15.8607 4.64826 15.0731 3.84457C14.2855 3.04088 13.2109 2.58291 12.0857 2.57138H11.9999C10.8747 2.56018 9.79112 2.99635 8.98743 3.78397C8.18374 4.57158 7.72577 5.64616 7.71423 6.77138V7.71423" stroke="#323842" stroke-width="2.05714" stroke-miterlimit="10" stroke-linecap="square"/>
</svg>
