<svg width="24" height="24" viewBox="0 0 24 24" fill="none" xmlns="http://www.w3.org/2000/svg">
<path d="M11.9999 13.7142C12.9467 13.7142 13.7142 12.9467 13.7142 11.9999C13.7142 11.0532 12.9467 10.2856 11.9999 10.2856C11.0532 10.2856 10.2856 11.0532 10.2856 11.9999C10.2856 12.9467 11.0532 13.7142 11.9999 13.7142Z" stroke="#6355D8" stroke-width="2.05714" stroke-miterlimit="10" stroke-linecap="square"/>
<path d="M4.28557 13.7142C5.23235 13.7142 5.99986 12.9467 5.99986 11.9999C5.99986 11.0532 5.23235 10.2856 4.28557 10.2856C3.3388 10.2856 2.57129 11.0532 2.57129 11.9999C2.57129 12.9467 3.3388 13.7142 4.28557 13.7142Z" stroke="#6355D8" stroke-width="2.05714" stroke-miterlimit="10" stroke-linecap="square"/>
<path d="M19.7143 13.7142C20.6611 13.7142 21.4286 12.9467 21.4286 11.9999C21.4286 11.0532 20.6611 10.2856 19.7143 10.2856C18.7675 10.2856 18 11.0532 18 11.9999C18 12.9467 18.7675 13.7142 19.7143 13.7142Z" stroke="#6355D8" stroke-width="2.05714" stroke-miterlimit="10" stroke-linecap="square"/>
</svg>
